# xmcd
# 
# Track frame offsets:
#     182
#     16342
#     30790
#     46777
#     60317
#     74647
#     97532
#     108092
#     128590
#     144422
#     157472
#     177455
#     188465
#     201372
# 
# Disc length: 2866
# 
# Revision: 0
# Processed by: cddbd v1.5.2PL0 Copyright (c) Steve Scherf et al.
# Submitted via: fre:ac v1.0.17
# 
DISCID=ae0b300e
DTITLE=Quarteto Em Cy - Minha História
DYEAR=0
DGENRE=
TTITLE0=Saindo De Mim/ Come ar De Novo
TTITLE1=Querelas Do Brasil
TTITLE2=Porta Aberta
TTITLE3=Canto De Ossanha
TTITLE4=Lua,Lua,Lua,Lua/ Canto Do Povo De Um Lugar
TTITLE5=O Último Trem/ Ponta De Areia 
TTITLE6=Nada Será Como Antes
TTITLE7=Sabia
TTITLE8=Sapato Velho
TTITLE9=O Cio Da Terra 
TTITLE10=Mulheres De Atenas
TTITLE11=Começaria Tudo Outra Vez
TTITLE12=Antes Que Seja Tarde
TTITLE13=Plataforma
EXTD=
EXTT0=
EXTT1=
EXTT2=
EXTT3=
EXTT4=
EXTT5=
EXTT6=
EXTT7=
EXTT8=
EXTT9=
EXTT10=
EXTT11=
EXTT12=
EXTT13=
PLAYORDER=
